# xmcd CD database file
#
# Track frame offsets:
#	150
#	14036
#	32340
#	53246
#	73564
#	104901
#	127502
#	147225
#	173172
#	191341
#	210872
#	231478
#	253642
#	271987
#	292415
#	314591
#	337989
#
# Disc length: 4758 seconds
#
# Revision: 0
# Processed by: cddbd v1.5.2PL0 Copyright (c) Steve Scherf et al.
# Submitted via: CDex 1.70beta2
#
DISCID=00129411
DTITLE=Various Artist - Bachata, Merengue, y Salsa 2007
DYEAR=2007
DGENRE=Merengue
TTITLE0=Antony Santos - Hoy te vuelvo a enamorar
TTITLE1=Toño Rosario - Ojala que se seque el Rio
TTITLE2=Orq. PUS - Mujer de la vida
TTITLE3=Frank Reyes - Pienso en ti
TTITLE4=El Omega - Tu quieres mambo
TTITLE5=Marc Anthony - Que precio tiene el cielo
TTITLE6=Yoskar Sarante - Me rompio la cama
TTITLE7=Julian de Oro Duro - Si me dejas no vale
TTITLE8=Raulin Rosendo - Si no van a morir mi Muerte
TTITLE9=Aventura - Infieles
TTITLE10=DJ Kello - Lo que paso paso
TTITLE11=N'Klave feat. Voltio - Ella Volvio
TTITLE12=Hector Acosta - Me voy
TTITLE13=Kinito Mendez - Amadora
TTITLE14=Michell - La playa
TTITLE15=Raulin Rodriguez - Se me salen las lagrimas
TTITLE16=Tulile - La culebra
EXTD=YEAR: 2007
EXTT0=
EXTT1=
EXTT2=
EXTT3=
EXTT4=
EXTT5=
EXTT6=
EXTT7=
EXTT8=
EXTT9=
EXTT10=
EXTT11=
EXTT12=
EXTT13=
EXTT14=
EXTT15=
EXTT16=
PLAYORDER=
